<svg xmlns="http://www.w3.org/2000/svg" width="1440" height="967" fill="none"><path fill="#fff" d="M750 844.235a1.353 1.353 0 0 1 2.706 0v.276a1.352 1.352 0 0 1-2.706 0zm0-11.534a1.353 1.353 0 0 1 2.706 0v.55a1.354 1.354 0 0 1-2.706 0zm0-11.534a1.354 1.354 0 1 1 2.706 0v.549a1.353 1.353 0 0 1-2.706 0zm0-11.535a1.354 1.354 0 0 1 2.706 0v.55a1.352 1.352 0 0 1-2.706 0zm0-11.534a1.353 1.353 0 1 1 2.706 0v.548a1.353 1.353 0 1 1-2.706 0zm0-11.536a1.353 1.353 0 0 1 2.706.001v.549a1.353 1.353 0 0 1-2.706 0zm0-11.534a1.353 1.353 0 0 1 2.706 0v.549a1.353 1.353 0 1 1-2.706 0zm0-11.535a1.353 1.353 0 0 1 2.706 0v.55a1.353 1.353 0 0 1-2.706 0zm0-11.534a1.354 1.354 0 0 1 2.706 0v.55a1.352 1.352 0 0 1-2.706 0zm0-11.534a1.353 1.353 0 1 1 2.706 0v.549a1.353 1.353 0 0 1-2.706 0zm0-11.535a1.354 1.354 0 0 1 2.706 0v.549a1.353 1.353 0 0 1-2.706 0zm0-11.535a1.353 1.353 0 0 1 2.706 0v.549a1.353 1.353 0 1 1-2.706 0zm0-11.535a1.353 1.353 0 0 1 2.706 0v.55a1.353 1.353 0 0 1-2.706 0zm0-11.534a1.353 1.353 0 0 1 2.706 0v.549a1.352 1.352 0 1 1-2.706 0zm0-11.535a1.354 1.354 0 0 1 2.706 0v.55a1.353 1.353 0 0 1-2.706 0zm0-11.534a1.354 1.354 0 0 1 2.706 0v.55a1.353 1.353 0 0 1-2.706 0zm0-11.534a1.354 1.354 0 1 1 2.706 0v.548a1.352 1.352 0 1 1-2.706 0zm0-11.536a1.353 1.353 0 0 1 2.706 0v.55a1.353 1.353 0 0 1-2.706 0zm0-11.534a1.354 1.354 0 0 1 2.706 0v.549a1.353 1.353 0 0 1-2.706 0zm0-11.259a1.354 1.354 0 1 1 2.706 0v.274a1.352 1.352 0 0 1-2.706 0z"/><path fill="#FBF7EB" d="M903.038 652.04c-2.856 0-4.896-1.608-5.544-4.296l2.088-.312c.24 1.776 1.44 2.832 3.456 2.832 2.328 0 3.648-1.488 3.648-4.128v-1.656c-.792 1.296-2.328 2.136-4.08 2.136-3.144 0-5.616-2.544-5.616-5.928s2.472-5.928 5.616-5.928c1.776 0 3.288.816 4.104 2.184V635h1.872v11.304c0 3.432-2.16 5.736-5.544 5.736m-.144-7.2c2.28 0 3.888-1.704 3.888-4.152s-1.608-4.152-3.888-4.152-3.888 1.704-3.888 4.152 1.608 4.152 3.888 4.152M884.377 647v-12h1.872v1.728c.792-1.272 2.088-1.968 3.624-1.968 1.296 0 2.4.48 3.144 1.32.744.816 1.176 1.944 1.176 3.288V647h-1.92v-7.344c0-.936-.264-1.728-.744-2.256-.48-.552-1.2-.864-2.088-.864-1.872 0-3.144 1.368-3.144 3.36V647zm-5.72.001v-12h1.92v12zm.96-13.968c-.84 0-1.488-.648-1.488-1.488s.648-1.488 1.488-1.488 1.488.648 1.488 1.488-.648 1.488-1.488 1.488m-4.838 14.11c-.96 0-1.704-.24-2.208-.72-.48-.456-.72-1.128-.72-2.112v-7.632h-1.968v-1.68h1.968v-2.88h1.92v2.88h2.16v1.68h-2.16v7.392c0 .432.096.696.288.912.216.216.576.336 1.08.336.24 0 .504-.024.792-.096v1.776c-.216.072-.72.144-1.152.144m-12.736.097c-1.224 0-2.328-.48-3.072-1.32-.744-.816-1.176-1.944-1.176-3.624V635h1.92v7.104c0 1.176.264 1.968.744 2.496.48.552 1.2.864 2.016.864 1.944 0 3.072-1.488 3.072-3.672V635h1.92v12h-1.872v-1.824c-.792 1.368-2.016 2.064-3.552 2.064m-13.121 0c-3.48 0-6.072-2.664-6.072-6.24s2.592-6.24 6.072-6.24 6.072 2.664 6.072 6.24-2.592 6.24-6.072 6.24m0-1.776c2.376 0 4.056-1.824 4.056-4.464s-1.68-4.464-4.056-4.464-4.056 1.824-4.056 4.464 1.68 4.464 4.056 4.464M835.838 647v-12h1.872v2.328c.6-1.584 1.848-2.568 3.36-2.568.264 0 .504.024.696.072v2.064a5 5 0 0 0-.84-.072c-1.968 0-3.168 1.656-3.168 4.392V647zm-9.551.143c-.96 0-1.704-.24-2.208-.72-.48-.456-.72-1.128-.72-2.112v-7.632h-1.968v-1.68h1.968v-2.88h1.92v2.88h2.16v1.68h-2.16v7.392c0 .432.096.696.288.912.216.216.576.336 1.08.336.24 0 .504-.024.792-.096v1.776c-.216.072-.72.144-1.152.144M814.393 647v-12h1.872v2.328c.6-1.584 1.848-2.568 3.36-2.568.264 0 .504.024.696.072v2.064a5 5 0 0 0-.84-.072c-1.968 0-3.168 1.656-3.168 4.392V647zm-9.504.24c-2.568 0-4.248-1.512-4.248-3.744 0-2.112 1.368-3.36 3.936-3.432l4.272-.12v-.48c0-.984-.216-1.704-.72-2.208s-1.224-.816-2.232-.816c-1.68 0-2.712.792-2.904 2.328h-2.064c.192-2.472 2.112-4.008 4.968-4.008 1.584 0 2.88.456 3.672 1.296s1.176 1.872 1.176 3.312v5.64c0 .72.048 1.272.144 1.992h-1.896a20 20 0 0 1-.144-1.704c-.936 1.296-2.28 1.944-3.96 1.944m-2.232-3.72c0 1.32 1.032 2.136 2.592 2.136 2.136 0 3.6-1.416 3.6-3.528v-.624l-3.768.12c-1.656.048-2.424.696-2.424 1.896M781.018 647v-12h1.872v1.728c.816-1.344 2.016-1.968 3.48-1.968 1.704 0 2.928.84 3.528 2.28.864-1.464 2.208-2.28 3.84-2.28 1.2 0 2.184.432 2.88 1.2s1.104 1.944 1.104 3.336V647h-1.92v-7.416c0-.96-.216-1.728-.648-2.232-.432-.528-1.08-.816-1.92-.816-1.8 0-2.904 1.272-2.904 3.336V647h-1.92v-7.416c0-.96-.216-1.728-.648-2.232-.432-.528-1.08-.816-1.92-.816-1.8 0-2.904 1.272-2.904 3.336V647zm-8.92.24c-3.528 0-6.216-2.208-6.36-5.28h2.184c.168 2.112 1.752 3.432 4.176 3.432 2.328 0 3.84-1.248 3.84-3.168 0-1.56-.864-2.328-3.408-2.88l-1.752-.384c-3.024-.672-4.56-2.136-4.56-4.656 0-2.736 2.4-4.824 5.664-4.824 3.312 0 5.808 2.04 5.928 4.872h-2.16c-.168-1.848-1.632-3.024-3.768-3.024-2.16 0-3.552 1.176-3.552 2.904 0 1.56.912 2.328 3.192 2.808l1.704.36c3.192.672 4.824 2.256 4.824 4.632 0 3.048-2.472 5.208-5.952 5.208"/><path fill="#ECECEC" fill-opacity=".8" d="M860.585 674v-2.592h-5.728v-1.168l5.392-7.76h1.648v7.728h1.648v1.2h-1.648V674zm-4.208-3.792h4.208v-6.128zM846.57 674v-1.168l4.752-4.944c.688-.704 1.072-1.376 1.072-2.208 0-1.28-.864-2.144-2.144-2.144-1.328 0-2.208.88-2.272 2.336h-1.408c.128-2.144 1.616-3.552 3.68-3.552 2.048 0 3.52 1.376 3.52 3.36 0 1.168-.576 2.096-1.584 3.136l-3.84 3.984h5.616v1.2zm-12.287 0v-8h1.248v1.152c.528-.848 1.392-1.312 2.416-1.312.864 0 1.6.32 2.096.88.496.544.784 1.296.784 2.192V674h-1.28v-4.896c0-.624-.176-1.152-.496-1.504-.32-.368-.8-.576-1.392-.576-1.248 0-2.096.912-2.096 2.24V674zm-6.012.16c-2.32 0-4.048-1.776-4.048-4.16s1.728-4.16 4.048-4.16 4.048 1.776 4.048 4.16-1.728 4.16-4.048 4.16m0-1.184c1.584 0 2.704-1.216 2.704-2.976s-1.12-2.976-2.704-2.976-2.704 1.216-2.704 2.976 1.12 2.976 2.704 2.976m-7.3 1.023v-8h1.28v8zm.64-9.312a.977.977 0 0 1-.992-.992c0-.56.432-.992.992-.992s.992.432.992.992-.432.992-.992.992m-3.226 9.409c-.64 0-1.136-.16-1.472-.48-.32-.304-.48-.752-.48-1.408v-5.088h-1.312V666h1.312v-1.92h1.28V666h1.44v1.12h-1.44v4.928c0 .288.064.464.192.608.144.144.384.224.72.224.16 0 .336-.016.528-.064V674c-.144.048-.48.096-.768.096m-7.913.064c-2.304 0-3.984-1.792-3.984-4.16s1.68-4.16 3.984-4.16c1.872 0 3.392 1.136 3.712 2.816l-1.408.192c-.224-1.168-1.168-1.824-2.304-1.824-1.568 0-2.64 1.248-2.64 2.976s1.072 2.976 2.64 2.976c1.12 0 2.096-.672 2.304-1.856l1.408.208c-.496 1.744-1.888 2.832-3.712 2.832m-9.759 0c-1.712 0-2.832-1.008-2.832-2.496 0-1.408.912-2.24 2.624-2.288l2.848-.08v-.32c0-.656-.144-1.136-.48-1.472s-.816-.544-1.488-.544c-1.12 0-1.808.528-1.936 1.552h-1.376c.128-1.648 1.408-2.672 3.312-2.672 1.056 0 1.92.304 2.448.864s.784 1.248.784 2.208v3.76c0 .48.032.848.096 1.328h-1.264c-.048-.4-.08-.736-.096-1.136-.624.864-1.52 1.296-2.64 1.296m-1.488-2.48c0 .88.688 1.424 1.728 1.424 1.424 0 2.4-.944 2.4-2.352v-.416l-2.512.08c-1.104.032-1.616.464-1.616 1.264m-6.176 2.32v-8h1.248v1.552c.4-1.056 1.232-1.712 2.24-1.712.176 0 .336.016.464.048v1.376a3 3 0 0 0-.56-.048c-1.312 0-2.112 1.104-2.112 2.928V674zm-5.812.16c-2.272 0-3.952-1.792-3.952-4.16s1.696-4.16 3.952-4.16c2.336 0 3.872 1.68 3.872 4.256v.224h-6.496c.128 1.6 1.152 2.656 2.624 2.656 1.168 0 2.016-.64 2.24-1.6l1.408.208c-.496 1.568-1.904 2.576-3.648 2.576m-2.56-4.928h5.04c-.16-1.312-1.056-2.208-2.48-2.208-1.312 0-2.288.864-2.56 2.208m-3.261 4.864c-.64 0-1.136-.16-1.472-.48-.32-.304-.48-.752-.48-1.408v-5.088h-1.312V666h1.312v-1.92h1.28V666h1.44v1.12h-1.44v4.928c0 .288.064.464.192.608.144.144.384.224.72.224.16 0 .336-.016.528-.064V674c-.144.048-.48.096-.768.096m-11.18-.096v-8h1.248v1.152c.528-.848 1.392-1.312 2.416-1.312.864 0 1.6.32 2.096.88.496.544.784 1.296.784 2.192V674h-1.28v-4.896c0-.624-.176-1.152-.496-1.504-.32-.368-.8-.576-1.392-.576-1.248 0-2.096.912-2.096 2.24V674zm-4.025 0v-11.52h1.36V674z" opacity=".6"/></svg>